<svg width="190" height="30" viewBox="0 0 190 30" fill="none" xmlns="http://www.w3.org/2000/svg">
<path d="M29.9625 10.8429C29.8339 10.4143 29.4054 10.0714 28.9339 10.0714L19.2482 9.85714L16.0339 0.728571C15.9054 0.3 15.4768 0 15.0054 0C14.5339 0 14.1054 0.3 13.9768 0.728571L10.7625 9.85714L1.07679 10.0714C0.605357 10.0714 0.176786 10.3714 0.0482143 10.8429C-0.0803571 11.2714 0.0482143 11.7857 0.433929 12.0857L8.14821 17.9571L5.3625 27.2143C5.23393 27.6857 5.40536 28.1571 5.79107 28.4143C6.17679 28.6714 6.69107 28.7143 7.07679 28.4143L15.0054 22.9286L22.9768 28.4143C23.3625 28.6714 23.8768 28.6714 24.2625 28.4143C24.6482 28.1571 24.8196 27.6429 24.6911 27.2143L21.8625 17.9571L29.5768 12.0857C29.9625 11.7857 30.0911 11.3143 29.9625 10.8429Z" fill="#FFD66B"/>
<path d="M69.9679 10.8429C69.8393 10.4143 69.4107 10.0714 68.9393 10.0714L59.2536 9.85714L56.0393 0.728571C55.9107 0.3 55.4822 0 55.0107 0C54.5393 0 54.1107 0.3 53.9822 0.728571L50.7679 9.85714L41.0822 10.0714C40.6107 10.0714 40.1822 10.3714 40.0536 10.8429C39.925 11.2714 40.0536 11.7857 40.4393 12.0857L48.1536 17.9571L45.3679 27.2143C45.2393 27.6857 45.4107 28.1571 45.7964 28.4143C46.1822 28.6714 46.6964 28.7143 47.0822 28.4143L55.0107 22.9286L62.9822 28.4143C63.3679 28.6714 63.8822 28.6714 64.2679 28.4143C64.6536 28.1571 64.825 27.6429 64.6964 27.2143L61.8679 17.9571L69.5822 12.0857C69.9679 11.7857 70.0964 11.3143 69.9679 10.8429Z" fill="#FFD66B"/>
<path d="M109.968 10.8429C109.839 10.4143 109.411 10.0714 108.939 10.0714L99.2536 9.85714L96.0393 0.728571C95.9107 0.3 95.4822 0 95.0107 0C94.5393 0 94.1107 0.3 93.9822 0.728571L90.7679 9.85714L81.0822 10.0714C80.6107 10.0714 80.1822 10.3714 80.0536 10.8429C79.925 11.2714 80.0536 11.7857 80.4393 12.0857L88.1536 17.9571L85.3679 27.2143C85.2393 27.6857 85.4107 28.1571 85.7964 28.4143C86.1822 28.6714 86.6964 28.7143 87.0822 28.4143L95.0107 22.9286L102.982 28.4143C103.368 28.6714 103.882 28.6714 104.268 28.4143C104.654 28.1571 104.825 27.6429 104.696 27.2143L101.868 17.9571L109.582 12.0857C109.968 11.7857 110.096 11.3143 109.968 10.8429Z" fill="#FFD66B"/>
<path d="M149.968 10.8429C149.839 10.4143 149.411 10.0714 148.939 10.0714L139.254 9.85714L136.039 0.728571C135.911 0.3 135.482 0 135.011 0C134.539 0 134.111 0.3 133.982 0.728571L130.768 9.85714L121.082 10.0714C120.611 10.0714 120.182 10.3714 120.054 10.8429C119.925 11.2714 120.054 11.7857 120.439 12.0857L128.154 17.9571L125.368 27.2143C125.239 27.6857 125.411 28.1571 125.796 28.4143C126.182 28.6714 126.696 28.7143 127.082 28.4143L135.011 22.9286L142.982 28.4143C143.368 28.6714 143.882 28.6714 144.268 28.4143C144.654 28.1571 144.825 27.6429 144.696 27.2143L141.868 17.9571L149.582 12.0857C149.968 11.7857 150.096 11.3143 149.968 10.8429Z" fill="#FFD66B"/>
<path d="M189.952 11.463C189.823 11.0233 189.395 10.6715 188.924 10.6715L179.284 10.4516L176.028 1.08455C175.857 0.644782 175.471 0.336945 175 0.336945V0.292969C174.743 0.292969 174.486 0.424899 174.315 0.600806C174.143 0.732736 174.015 0.908642 173.972 1.08455L170.759 10.4076L161.119 10.6275C160.862 10.6275 160.605 10.7594 160.391 10.9353C160.22 11.0673 160.134 11.2432 160.048 11.463C159.92 11.9028 160.048 12.4305 160.434 12.7384L168.145 18.7632L165.361 28.2621C165.232 28.7459 165.403 29.2296 165.789 29.4935C166.003 29.6254 166.217 29.7134 166.432 29.7134C166.646 29.7134 166.86 29.6254 167.074 29.4935L175 23.8645L182.969 29.4935C183.14 29.6254 183.397 29.7134 183.611 29.7134C183.825 29.7134 184.082 29.6254 184.254 29.4935C184.639 29.2296 184.811 28.7019 184.682 28.2621L181.855 18.7632L189.566 12.7384C189.952 12.4305 190.08 11.9468 189.952 11.463ZM180.998 17.5758L180.184 18.1915L180.484 19.159L182.969 27.6904L175.814 22.6331L175 22.0614V2.53578L177.87 10.9793L178.213 11.9468L179.198 11.9908L187.895 12.1667L180.998 17.5758Z" fill="#FFD66B"/>
</svg>
