<svg width="72" height="56" viewBox="0 0 72 56" fill="none" xmlns="http://www.w3.org/2000/svg">
<path d="M8 0H40C42.1217 0 44.1566 0.842855 45.6569 2.34315C47.1571 3.84344 48 5.87827 48 8V48H8C5.87827 48 3.84344 47.1571 2.34315 45.6569C0.842855 44.1566 0 42.1217 0 40V8C0 5.87827 0.842855 3.84344 2.34315 2.34315C3.84344 0.842855 5.87827 0 8 0Z" fill="#3D8AFF"/>
<path d="M48 16H59.056C60.5413 16.0008 61.997 16.4151 63.2602 17.1964C64.5234 17.9778 65.5441 19.0954 66.208 20.424L71.152 30.312C71.7103 31.4213 72.0007 32.6461 72 33.888V40C72 42.1217 71.1571 44.1566 69.6568 45.6569C68.1566 47.1571 66.1217 48 64 48H48V16Z" fill="#005AAA"/>
<path d="M48 32H63.408C63.6803 31.9999 63.9481 31.9302 64.186 31.7976C64.4239 31.6651 64.624 31.474 64.7674 31.2425C64.9108 31.011 64.9927 30.7467 65.0054 30.4747C65.0181 30.2026 64.9612 29.9319 64.84 29.688L61.104 22.208C60.7715 21.5444 60.2609 20.9865 59.6294 20.5965C58.9978 20.2066 58.2702 20 57.528 20H48V32Z" fill="white"/>
<path d="M29.688 14.84L24.712 12.36C24.4908 12.2501 24.2471 12.1928 24 12.1928C23.7529 12.1928 23.5092 12.2501 23.288 12.36L18.312 14.84C18.0681 14.9612 17.7974 15.0181 17.5253 15.0054C17.2533 14.9927 16.989 14.9108 16.7575 14.7674C16.526 14.624 16.3349 14.4239 16.2024 14.186C16.0698 13.9481 16.0001 13.6803 16 13.408V0H32V13.408C31.9999 13.6803 31.9302 13.9481 31.7976 14.186C31.6651 14.4239 31.474 14.624 31.2425 14.7674C31.011 14.9108 30.7467 14.9927 30.4747 15.0054C30.2026 15.0181 29.9319 14.9612 29.688 14.84Z" fill="#FFD66B"/>
<path d="M60 56C64.4183 56 68 52.4183 68 48C68 43.5817 64.4183 40 60 40C55.5817 40 52 43.5817 52 48C52 52.4183 55.5817 56 60 56Z" fill="#FFD66B"/>
<path d="M60 50C61.1046 50 62 49.1046 62 48C62 46.8954 61.1046 46 60 46C58.8954 46 58 46.8954 58 48C58 49.1046 58.8954 50 60 50Z" fill="white"/>
<path d="M23.696 56C28.1143 56 31.696 52.4183 31.696 48C31.696 43.5817 28.1143 40 23.696 40C19.2777 40 15.696 43.5817 15.696 48C15.696 52.4183 19.2777 56 23.696 56Z" fill="#FFD66B"/>
<path d="M23.696 50C24.8006 50 25.696 49.1046 25.696 48C25.696 46.8954 24.8006 46 23.696 46C22.5914 46 21.696 46.8954 21.696 48C21.696 49.1046 22.5914 50 23.696 50Z" fill="white"/>
</svg>
