<svg width="202" height="72" viewBox="0 0 202 72" fill="none" xmlns="http://www.w3.org/2000/svg">
<rect x="65.0791" y="45.1006" width="136.421" height="11.951" rx="5.97551" fill="#276CAA"/>
<path d="M77.2876 54.303C76.6755 54.303 76.1543 54.1641 75.724 53.8863C75.2997 53.6086 75.0027 53.2281 74.833 52.745L75.7331 52.2196C75.9876 52.9322 76.5149 53.2885 77.3149 53.2885C77.7089 53.2885 78.0028 53.213 78.1967 53.062C78.3967 52.905 78.4967 52.7027 78.4967 52.4551C78.4967 52.1955 78.3907 51.9992 78.1786 51.8664C77.9664 51.7275 77.5907 51.5765 77.0513 51.4135C76.7482 51.3229 76.5028 51.2383 76.3149 51.1598C76.127 51.0813 75.927 50.9726 75.7149 50.8337C75.5088 50.6888 75.3543 50.5107 75.2512 50.2993C75.1482 50.088 75.0967 49.8404 75.0967 49.5565C75.0967 48.9949 75.2967 48.5511 75.6967 48.225C76.0967 47.8929 76.5785 47.7268 77.1422 47.7268C77.6513 47.7268 78.0967 47.8506 78.4786 48.0982C78.8604 48.3458 79.1543 48.687 79.3604 49.1218L78.4786 49.629C78.2119 49.0372 77.7664 48.7413 77.1422 48.7413C76.8391 48.7413 76.5967 48.8138 76.4149 48.9587C76.2331 49.0976 76.1422 49.2878 76.1422 49.5294C76.1422 49.7649 76.2331 49.9521 76.4149 50.091C76.6028 50.2238 76.9391 50.3657 77.424 50.5167C77.6664 50.5952 77.8422 50.6556 77.9513 50.6979C78.0664 50.7341 78.224 50.7945 78.424 50.879C78.6301 50.9636 78.7846 51.0481 78.8877 51.1327C78.9907 51.2172 79.0998 51.3229 79.2149 51.4497C79.3362 51.5765 79.421 51.7214 79.4695 51.8845C79.518 52.0475 79.5422 52.2317 79.5422 52.437C79.5422 53.0107 79.3331 53.4666 78.9149 53.8048C78.5028 54.1369 77.9604 54.303 77.2876 54.303Z" fill="white"/>
<path d="M85.0805 53.1889H87.8987V54.1853H84.035V47.8446H87.8533V48.841H85.0805V50.4895H87.626V51.4769H85.0805V53.1889Z" fill="white"/>
<path d="M96.1195 54.1853L94.7741 51.8754H93.5377V54.1853H92.4922V47.8446H95.0377C95.6074 47.8446 96.0892 48.0438 96.4832 48.4424C96.8832 48.8349 97.0832 49.315 97.0832 49.8826C97.0832 50.2872 96.965 50.6586 96.7286 50.9968C96.4983 51.3289 96.1953 51.5705 95.8195 51.7214L97.265 54.1853H96.1195ZM93.5377 48.8228V50.9424H95.0377C95.3165 50.9424 95.5529 50.8398 95.7468 50.6345C95.9407 50.4291 96.0377 50.1785 96.0377 49.8826C96.0377 49.5867 95.9407 49.3361 95.7468 49.1308C95.5529 48.9255 95.3165 48.8228 95.0377 48.8228H93.5377Z" fill="white"/>
<path d="M103.233 54.1853L101.024 47.8446H102.17L103.861 52.9262L105.561 47.8446H106.697L104.488 54.1853H103.233Z" fill="white"/>
<path d="M111.014 47.8446H112.059V54.1853H111.014V47.8446Z" fill="white"/>
<path d="M119.976 54.303C119.019 54.303 118.225 53.989 117.594 53.361C116.964 52.7269 116.649 51.9449 116.649 51.0149C116.649 50.0849 116.964 49.3059 117.594 48.6779C118.225 48.0438 119.019 47.7268 119.976 47.7268C120.552 47.7268 121.082 47.8627 121.567 48.1344C122.058 48.4062 122.44 48.7745 122.713 49.2395L121.804 49.7649C121.634 49.4509 121.385 49.2033 121.058 49.0221C120.737 48.8349 120.376 48.7413 119.976 48.7413C119.297 48.7413 118.746 48.9557 118.322 49.3844C117.903 49.8132 117.694 50.3567 117.694 51.0149C117.694 51.6731 117.903 52.2166 118.322 52.6454C118.746 53.0741 119.297 53.2885 119.976 53.2885C120.376 53.2885 120.74 53.1979 121.067 53.0168C121.394 52.8296 121.64 52.5789 121.804 52.2649L122.713 52.7812C122.446 53.2462 122.067 53.6176 121.576 53.8954C121.091 54.1671 120.558 54.303 119.976 54.303Z" fill="white"/>
<path d="M128.263 53.1889H131.081V54.1853H127.218V47.8446H131.036V48.841H128.263V50.4895H130.809V51.4769H128.263V53.1889Z" fill="white"/>
<path d="M144.593 54.303C143.636 54.303 142.842 53.989 142.211 53.361C141.581 52.7269 141.266 51.9449 141.266 51.0149C141.266 50.0849 141.581 49.3059 142.211 48.6779C142.842 48.0438 143.636 47.7268 144.593 47.7268C145.169 47.7268 145.699 47.8627 146.184 48.1344C146.675 48.4062 147.057 48.7745 147.33 49.2395L146.421 49.7649C146.251 49.4509 146.002 49.2033 145.675 49.0221C145.354 48.8349 144.993 48.7413 144.593 48.7413C143.914 48.7413 143.363 48.9557 142.939 49.3844C142.52 49.8132 142.311 50.3567 142.311 51.0149C142.311 51.6731 142.52 52.2166 142.939 52.6454C143.363 53.0741 143.914 53.2885 144.593 53.2885C144.993 53.2885 145.357 53.1979 145.684 53.0168C146.011 52.8296 146.257 52.5789 146.421 52.2649L147.33 52.7812C147.063 53.2462 146.684 53.6176 146.193 53.8954C145.708 54.1671 145.175 54.303 144.593 54.303Z" fill="white"/>
<path d="M152.88 53.1889H155.698V54.1853H151.835V47.8446H155.653V48.841H152.88V50.4895H155.426V51.4769H152.88V53.1889Z" fill="white"/>
<path d="M164.11 47.8446H165.156V54.1853H164.337L161.337 49.8826V54.1853H160.292V47.8446H161.11L164.11 52.1472V47.8446Z" fill="white"/>
<path d="M174.199 47.8446V48.841H172.408V54.1853H171.363V48.841H169.563V47.8446H174.199Z" fill="white"/>
<path d="M179.654 53.1889H182.473V54.1853H178.609V47.8446H182.427V48.841H179.654V50.4895H182.2V51.4769H179.654V53.1889Z" fill="white"/>
<path d="M190.693 54.1853L189.348 51.8754H188.112V54.1853H187.066V47.8446H189.612C190.181 47.8446 190.663 48.0438 191.057 48.4424C191.457 48.8349 191.657 49.315 191.657 49.8826C191.657 50.2872 191.539 50.6586 191.303 50.9968C191.072 51.3289 190.769 51.5705 190.393 51.7214L191.839 54.1853H190.693ZM188.112 48.8228V50.9424H189.612C189.89 50.9424 190.127 50.8398 190.321 50.6345C190.515 50.4291 190.612 50.1785 190.612 49.8826C190.612 49.5867 190.515 49.3361 190.321 49.1308C190.127 48.9255 189.89 48.8228 189.612 48.8228H188.112Z" fill="white"/>
<path d="M72.656 42V19.6H82.352C84.3573 19.6 86.0853 19.9307 87.536 20.592C88.9867 21.232 90.1067 22.16 90.896 23.376C91.6853 24.592 92.08 26.0427 92.08 27.728C92.08 29.392 91.6853 30.832 90.896 32.048C90.1067 33.2427 88.9867 34.16 87.536 34.8C86.0853 35.44 84.3573 35.76 82.352 35.76H75.536L77.84 33.488V42H72.656ZM86.896 42L81.296 33.872H86.832L92.496 42H86.896ZM77.84 34.064L75.536 31.632H82.064C83.664 31.632 84.8587 31.2907 85.648 30.608C86.4373 29.904 86.832 28.944 86.832 27.728C86.832 26.4907 86.4373 25.5307 85.648 24.848C84.8587 24.1653 83.664 23.824 82.064 23.824H75.536L77.84 21.36V34.064ZM100.955 28.624H111.739V32.656H100.955V28.624ZM101.339 37.84H113.531V42H96.1873V19.6H113.115V23.76H101.339V37.84ZM117.656 42V19.6H127.352C129.357 19.6 131.085 19.9307 132.536 20.592C133.987 21.232 135.107 22.16 135.896 23.376C136.685 24.592 137.08 26.0427 137.08 27.728C137.08 29.392 136.685 30.832 135.896 32.048C135.107 33.264 133.987 34.2027 132.536 34.864C131.085 35.504 129.357 35.824 127.352 35.824H120.536L122.84 33.488V42H117.656ZM122.84 34.064L120.536 31.6H127.064C128.664 31.6 129.859 31.2587 130.648 30.576C131.437 29.8933 131.832 28.944 131.832 27.728C131.832 26.4907 131.437 25.5307 130.648 24.848C129.859 24.1653 128.664 23.824 127.064 23.824H120.536L122.84 21.36V34.064ZM136.712 42L146.696 19.6H151.816L161.832 42H156.392L148.2 22.224H150.248L142.024 42H136.712ZM141.704 37.2L143.08 33.264H154.6L156.008 37.2H141.704ZM164.156 42V19.6H169.34V42H164.156ZM174.656 42V19.6H184.352C186.357 19.6 188.085 19.9307 189.536 20.592C190.987 21.232 192.107 22.16 192.896 23.376C193.685 24.592 194.08 26.0427 194.08 27.728C194.08 29.392 193.685 30.832 192.896 32.048C192.107 33.2427 190.987 34.16 189.536 34.8C188.085 35.44 186.357 35.76 184.352 35.76H177.536L179.84 33.488V42H174.656ZM188.896 42L183.296 33.872H188.832L194.496 42H188.896ZM179.84 34.064L177.536 31.632H184.064C185.664 31.632 186.859 31.2907 187.648 30.608C188.437 29.904 188.832 28.944 188.832 27.728C188.832 26.4907 188.437 25.5307 187.648 24.848C186.859 24.1653 185.664 23.824 184.064 23.824H177.536L179.84 21.36V34.064Z" fill="#E2001A"/>
<g clip-path="url(#clip0_12_449)">
<path d="M45.5052 4.10356C46.0945 5.07909 45.9059 51.6319 45.14 53.4639C44.5388 54.9152 25.0725 71.2502 24.0589 71.6774C10.896 71.5945 2.0232 66.7522 0.550711 64.1945C-0.0149806 60.9821 0.468092 11.456 0.998302 10.421C1.4697 9.51686 26.3684 0.511008 27.241 0.296782C28.0409 0.116134 44.8498 3.01712 45.5129 4.10101L45.5052 4.10356Z" fill="#C7C7C7"/>
<path d="M45.2526 4.26315L45.2762 4.25123L45.2526 4.27504C45.2526 4.26315 45.241 4.26315 45.241 4.26315V4.23934L45.3233 4.20364L45.2998 4.22745L45.2762 4.25123L45.2446 4.26186L45.2526 4.26315ZM45.2737 4.25252L45.2972 4.22873L45.3208 4.20493L45.3798 4.18112H45.3915L45.3208 4.21682L45.2787 4.2487L45.2737 4.25252ZM45.3894 4.17813H45.3778H45.3883H45.3767L45.5062 4.10676L45.3883 4.16624V4.17687L45.3894 4.17813ZM45.5157 4.13563L45.3862 4.1832V4.17131L45.5125 4.13943L45.5157 4.13563ZM45.7578 3.95498C45.7343 3.91929 45.7107 3.88358 45.6755 3.84789C45.6519 3.81219 45.6164 3.7884 45.5812 3.76462C45.5221 3.71713 45.4398 3.66955 45.3455 3.62195C45.2631 3.57436 45.1688 3.53866 45.0626 3.49108C44.9567 3.44347 44.8388 3.40778 44.7091 3.3602C44.4617 3.26502 44.1553 3.16982 43.8253 3.07464C43.4837 2.97944 43.1065 2.88425 42.7058 2.77716C41.1034 2.37276 39.0177 1.92065 36.8847 1.51626C34.752 1.09983 32.5955 0.730979 30.8633 0.445535C30.0031 0.314661 29.2369 0.195704 28.6361 0.124317C28.3416 0.088623 28.0823 0.0529182 27.8701 0.0291365C27.7642 0.0172244 27.6699 0.0172224 27.5873 0.00531032C27.5402 0.00531032 27.5049 0.00530832 27.4694 -0.00656128H27.3635C27.328 -0.00656128 27.3045 -0.00655929 27.2809 0.00531032H27.2337C27.2102 0.00531032 27.1985 0.00531131 27.1866 0.0172234C27.163 0.0172234 27.1395 0.0291385 27.1042 0.0410081C27.0807 0.0410081 27.0454 0.052902 27.0099 0.0647928C26.9747 0.0766837 26.9276 0.0885998 26.8804 0.100491C26.8333 0.124294 26.7862 0.13618 26.7271 0.159994C26.6092 0.195688 26.4678 0.243278 26.3147 0.302785C26.1614 0.35038 25.9847 0.409855 25.7962 0.481253C25.4074 0.612127 24.9595 0.778582 24.4411 0.957072C23.9344 1.13554 23.3688 1.33781 22.7442 1.56377C20.2815 2.45614 17.0761 3.62208 13.871 4.8235C10.6777 6.02512 7.48421 7.23865 5.06866 8.21415C4.46773 8.46401 3.91372 8.69006 3.41903 8.89222C2.91213 9.1064 2.47622 9.29676 2.11096 9.46334C1.92238 9.54663 1.75739 9.62991 1.61598 9.70131C1.46289 9.77258 1.33313 9.84396 1.22718 9.90359C1.16814 9.92725 1.121 9.96295 1.07387 9.98673C1.02671 10.0224 0.979567 10.0462 0.956011 10.07C0.908869 10.1057 0.873657 10.1295 0.85008 10.1533C0.791044 10.2009 0.767458 10.2485 0.743902 10.2842C0.73223 10.308 0.720321 10.3437 0.696744 10.3913C0.696744 10.427 0.685088 10.4627 0.685088 10.4984C0.673184 10.5341 0.673182 10.5817 0.661509 10.6292C0.649605 10.6768 0.649602 10.7244 0.63795 10.7839C0.63795 10.891 0.626045 11.0218 0.602469 11.1645C0.602469 11.3192 0.590819 11.4858 0.579136 11.6643C0.555581 12.033 0.531996 12.4851 0.50844 12.9849C0.484864 13.4964 0.461284 14.0674 0.449379 14.698C0.367009 17.2319 0.284388 20.694 0.225594 24.6318C0.0958383 32.5076 0.00154114 42.263 0.00154114 50.1392C0.00154114 53.8034 0.0251212 57.075 0.0606019 59.5495C0.0722534 60.1682 0.0841539 60.7393 0.0958369 61.251C0.107741 61.7623 0.131292 62.2265 0.142975 62.619C0.154879 63.0235 0.178471 63.3564 0.190133 63.6302C0.202037 63.773 0.21371 63.892 0.225614 63.9872C0.237266 64.0468 0.23725 64.0944 0.23725 64.142C0.249154 64.1775 0.260829 64.2251 0.260829 64.2607L0.272732 64.3083L0.29629 64.3559C0.402238 64.5345 0.532008 64.7128 0.685088 64.9032C0.850082 65.0936 1.03865 65.284 1.25078 65.4861C1.66314 65.8668 2.19334 66.2714 2.84135 66.6877C4.10228 67.5206 5.77548 68.3773 7.82591 69.1506C9.86466 69.9239 12.2685 70.6255 14.9906 71.1373C17.7126 71.6488 20.753 71.9699 24.0522 71.994H24.1229L24.1817 71.9699C24.2053 71.9582 24.2289 71.9464 24.276 71.9223C24.2996 71.8988 24.3351 71.8868 24.3703 71.8512C24.4058 71.8272 24.441 71.8036 24.4881 71.7796C24.5353 71.744 24.5824 71.7084 24.6296 71.6726C24.7358 71.6015 24.8536 71.518 24.9831 71.4111C25.1127 71.3159 25.2541 71.2087 25.4191 71.0779C25.7374 70.84 26.1026 70.5426 26.5149 70.2095C26.9275 69.8763 27.3871 69.5074 27.8821 69.1031C29.8734 67.4849 32.4187 65.3555 34.9522 63.1903C37.4856 61.0368 40.0193 58.836 41.9399 57.0988C42.423 56.6587 42.8708 56.2544 43.2715 55.8736C43.6722 55.5046 44.0258 55.1715 44.3203 54.8742C44.4734 54.7196 44.6031 54.5886 44.7209 54.4578C44.8505 54.3271 44.9567 54.2199 45.051 54.1127C45.1452 54.0057 45.216 53.9105 45.2748 53.8393C45.3102 53.7918 45.3338 53.7442 45.3574 53.7201C45.3809 53.6725 45.4043 53.625 45.4278 53.5894C45.4278 53.5656 45.4398 53.5298 45.4514 53.4942C45.4633 53.4586 45.475 53.4346 45.4869 53.387C45.4986 53.3158 45.5105 53.2324 45.5221 53.1255C45.5457 53.0303 45.5576 52.9233 45.5693 52.7923C45.5812 52.6613 45.5928 52.5305 45.6047 52.3757C45.6283 52.0784 45.6519 51.7217 45.6871 51.3169C45.699 50.9126 45.7226 50.4605 45.7461 49.9725C45.8404 47.9976 45.9111 45.3211 45.9699 42.2634C46.0878 36.1249 46.1585 28.4152 46.1585 21.5272C46.1585 16.8993 46.1233 12.6403 46.0642 9.48756C46.0526 8.70241 46.0407 7.97662 46.0171 7.33426C46.0054 6.70378 45.9819 6.14452 45.9583 5.68047C45.9464 5.44264 45.9347 5.22848 45.9228 5.04999C45.9111 4.85963 45.8992 4.69306 45.8876 4.5623C45.8757 4.4909 45.8757 4.43143 45.864 4.37192C45.8521 4.31241 45.8521 4.25294 45.8404 4.21724C45.8285 4.16964 45.8285 4.12205 45.8169 4.08636C45.805 4.06258 45.805 4.03877 45.7933 4.02688C45.7512 3.96312 45.7407 3.94187 45.7302 3.93124L45.7578 3.95498ZM45.3158 4.19939L45.4572 4.05662L45.3204 4.19476L45.3158 4.19939ZM45.2526 4.30565C45.2645 4.34134 45.2645 4.38896 45.2762 4.43655C45.2762 4.48414 45.2881 4.54362 45.2881 4.61489C45.2998 4.74589 45.3233 4.90045 45.3353 5.07892C45.3353 5.25741 45.3469 5.47157 45.3588 5.69753C45.3824 6.16156 45.4057 6.72076 45.4293 7.35119C45.4412 7.98167 45.4528 8.70753 45.4764 9.4926C45.5355 12.6334 45.559 16.8925 45.559 21.5205C45.559 28.3968 45.5 36.1179 45.3824 42.2451C45.3117 45.3026 45.241 47.9676 45.1583 49.9307C45.1348 50.4301 45.1112 50.8703 45.0876 51.2748C45.0641 51.6675 45.0405 52.0243 45.0169 52.3216C45.0053 52.4644 44.9934 52.6071 44.9698 52.7264C44.9698 52.8451 44.9462 52.9403 44.9345 53.0355C44.9226 53.1189 44.911 53.2021 44.8991 53.2497C44.8991 53.2852 44.8874 53.2973 44.8874 53.3211C44.8874 53.3328 44.8755 53.3448 44.8755 53.3448C44.8755 53.3569 44.8638 53.3686 44.8519 53.3924C44.8403 53.4045 44.8167 53.44 44.8048 53.4638C44.746 53.5352 44.6869 53.6184 44.6046 53.7136C44.5219 53.797 44.416 53.916 44.2981 54.0349C44.1803 54.1537 44.0508 54.2847 43.8974 54.4392C43.6029 54.7248 43.2613 55.058 42.8606 55.4269C42.4716 55.7956 42.024 56.212 41.5406 56.6404C39.62 58.3772 37.0982 60.5663 34.5648 62.7316C32.0314 64.8848 29.486 67.0144 27.518 68.6206C27.0233 69.0249 26.5635 69.3938 26.1512 69.727C25.7388 70.0601 25.3734 70.3457 25.0553 70.5954C24.9022 70.7142 24.7489 70.8334 24.6194 70.9286C24.5015 71.0238 24.3837 71.107 24.2894 71.1783C24.2423 71.2142 24.1951 71.2497 24.148 71.2735C24.1125 71.2973 24.0773 71.3211 24.0537 71.3449C24.0301 71.3569 24.0065 71.3687 23.9949 71.3805C20.7425 71.3569 17.7731 71.0356 15.098 70.5361C12.4115 70.0361 10.0428 69.3463 8.02783 68.5848C6.03623 67.8233 4.39851 66.9906 3.16116 66.1815C2.56025 65.789 2.05337 65.3965 1.65267 65.0275C1.45247 64.8492 1.28748 64.6708 1.14604 64.504C1.02819 64.3612 0.92225 64.2307 0.839637 64.0997V64.0521C0.827964 64.0163 0.827961 63.9687 0.827961 63.9211C0.816056 63.8259 0.804403 63.7072 0.792499 63.5879C0.768923 63.3146 0.757262 62.9815 0.733685 62.5887C0.721781 62.196 0.710129 61.7441 0.698204 61.2206C0.686552 60.7211 0.674652 60.15 0.662969 59.5312C0.627509 57.0569 0.603928 53.797 0.603928 50.1328C0.603928 42.2569 0.686555 32.5133 0.816058 24.6381C0.886777 20.7122 0.957498 17.2382 1.04011 14.7162C1.06367 14.0856 1.08725 13.5146 1.11081 13.003C1.13438 12.5034 1.14604 12.0632 1.16962 11.7064C1.18153 11.516 1.19318 11.3494 1.2051 11.2067C1.21675 11.0639 1.22865 10.9449 1.24034 10.8379C1.24034 10.7903 1.25224 10.7427 1.25224 10.7071C1.26389 10.6595 1.26389 10.6357 1.2758 10.6V10.5762C1.2758 10.5643 1.28747 10.5643 1.29938 10.5524C1.32293 10.5405 1.34652 10.5167 1.38175 10.4929C1.42889 10.481 1.46438 10.4453 1.51151 10.4215C1.61745 10.362 1.73532 10.3025 1.87673 10.2311C2.01813 10.1597 2.18311 10.0884 2.35978 10.0051C2.725 9.8385 3.14927 9.66015 3.64429 9.44597C4.13927 9.24372 4.69305 9.00575 5.29393 8.76792C7.70979 7.79225 10.8913 6.57889 14.0846 5.38916C17.278 4.18754 20.4832 3.00972 22.9461 2.12943C23.5587 1.90336 24.1361 1.7011 24.643 1.52276C25.1496 1.33238 25.6091 1.17769 25.9862 1.04681C26.1864 0.975416 26.3514 0.91594 26.5047 0.856454C26.6578 0.808848 26.7992 0.761248 26.9171 0.725576C26.9642 0.701752 27.0233 0.689877 27.0702 0.677965C27.1174 0.654183 27.1528 0.642273 27.188 0.630499C27.2235 0.618481 27.2471 0.618478 27.2823 0.606694L27.3178 0.594677L27.2942 0.4996L27.3059 0.594677H27.3178H27.365H27.4473C27.4709 0.594677 27.5064 0.594675 27.5416 0.606694C27.6242 0.606694 27.7066 0.618481 27.8128 0.630499C28.013 0.642263 28.2723 0.677969 28.5668 0.713663C29.156 0.785061 29.9103 0.904028 30.7705 1.0349C32.5025 1.30857 34.6471 1.6892 36.7683 2.09374C38.8893 2.51017 40.9752 2.95029 42.5658 3.35486C42.9665 3.46194 43.332 3.55714 43.65 3.65219C43.98 3.74737 44.2745 3.83066 44.5103 3.92586C44.6281 3.96156 44.746 4.00913 44.8402 4.04483C44.9226 4.08052 45.0169 4.11623 45.0759 4.15192C45.1347 4.18762 45.1938 4.21141 45.229 4.2471C45.229 4.2471 45.2409 4.2471 45.2409 4.25902C45.2304 4.24839 45.2409 4.26964 45.2409 4.28027L45.2526 4.30565ZM23.9705 71.4003C23.9822 71.4003 23.9822 71.3882 23.9941 71.3882H24.0645V71.5551L23.9698 71.3957L24.0638 71.5505V71.681L23.9462 71.4077C23.9462 71.4077 23.9568 71.3971 23.9673 71.3971L23.9705 71.4003ZM0.814886 64.0575C0.82679 64.0693 0.826793 64.0933 0.838465 64.1051C0.850369 64.1168 0.850368 64.1409 0.850368 64.1526L0.555866 64.2003L0.80323 64.0693H0.813756L0.8021 64.081L0.812625 64.0704H0.836204H0.815153L0.814886 64.0575ZM1.26747 10.5433V10.579C1.25557 10.579 1.25557 10.5909 1.24391 10.5909L1.18485 10.5195L1.1613 10.5076L1.20845 10.5314L1.27161 10.5527L1.26747 10.5433ZM1.1938 10.522L1.21738 10.534L1.19632 10.5233L1.1938 10.522ZM1.00434 10.4264L1.16933 10.5097L1.00093 10.4247L1.00434 10.4264ZM1.16222 10.5114L1.04437 10.3805L1.16014 10.5081L1.16222 10.5114ZM27.286 0.501427L27.2624 0.299174L27.2834 0.501074L27.286 0.501427ZM27.2439 0.299527L27.291 0.50178V0.513693L27.2489 0.301166L27.2439 0.299527Z" fill="black"/>
<path d="M44.558 5.07057L43.9451 5.33235L43.3326 5.606L42.7197 5.87952L42.0952 6.17698L41.4705 6.47445L40.846 6.78367L40.2215 7.09304L39.5851 7.41428L38.949 7.73554L38.3126 8.06859L37.6645 8.40174L37.0281 8.74676L36.3801 9.0917L35.732 9.43677L34.4239 10.1505L33.1043 10.8644L31.7843 11.5782L30.4526 12.3039L29.1094 13.0177L27.7661 13.7316L26.4227 14.4334L25.7511 14.7785L25.0794 15.1234L24.3959 15.4566L23.7243 15.7897L23.4062 15.7183L23.0762 15.635L22.4162 15.4804L21.733 15.3138L21.0375 15.1591L20.3306 14.9925L19.6119 14.8261L18.8931 14.6595L18.1505 14.4929L17.4201 14.3263L16.6777 14.1479L15.1812 13.8148L13.6846 13.4817L12.9303 13.3151L12.188 13.1485L11.4575 12.9938L10.7269 12.8393L10.0081 12.6846L9.30099 12.5299L8.59411 12.3753L7.91058 12.2325L7.23896 12.0897L6.90896 12.0302L6.57897 11.9588L6.26091 11.8994L5.94258 11.828L5.6245 11.7685L5.3181 11.709L5.01169 11.6495L4.71719 11.5781L4.42269 11.5305L4.13984 11.4711L3.85699 11.4116L3.57415 11.364L3.30323 11.3164L3.04394 11.2569L2.78467 11.2093L2.53731 11.1736L2.28969 11.126L2.05399 11.0784L2.66682 11.2688L3.27965 11.4591L3.90413 11.6495L4.54054 11.828L5.18859 12.0182L5.83667 12.1967L6.5083 12.3871L7.16826 12.5656L7.83989 12.7559L8.52343 12.9344L9.89024 13.3031L11.2689 13.6601L12.6593 14.0288L14.0497 14.3976L15.4284 14.7546L16.7955 15.1233L17.4788 15.3018L18.1504 15.4922L18.8223 15.6706L19.482 15.861L20.1301 16.0395L20.7784 16.2297L21.4145 16.4082L22.039 16.5986L22.6519 16.789L23.2647 16.9793L23.2763 17.6931L23.2999 18.4188L23.3118 19.1446L23.3235 19.894L23.3354 20.6554L23.3589 21.4168L23.3706 22.19L23.3825 22.9753L23.3942 23.7724L23.4061 24.5694L23.4178 25.3784V26.1994L23.4297 27.0203L23.4413 27.853L23.4532 28.6858V29.5304L23.4649 30.3751V31.2318L23.4768 32.0883L23.4884 32.9568L23.5003 34.6936L23.512 36.4425V38.215L23.5239 39.9877L23.5475 43.5449L23.5591 47.1139L23.571 48.8866L23.5827 50.6473L23.5946 52.3961L23.6063 54.133L23.6182 55.0015V55.8581L23.6299 56.7146L23.6418 57.5592V58.4039L23.6534 59.2485L23.6653 60.0694L23.677 60.9023V61.7111L23.6889 62.5202L23.7006 63.3175L23.7125 64.1143L23.7241 64.8996L23.736 65.6729L23.7477 66.4464L23.7713 67.1956L23.7832 67.9453L23.7948 68.6828L23.8184 69.4084L23.8303 70.1223L23.8419 69.3967L23.8539 68.671V67.9213L23.8655 67.1721L23.8774 66.4106L23.8891 65.6373L23.901 64.852L23.9127 64.0549L23.9246 63.2576L23.9362 62.4488L23.9481 61.6279L23.9717 60.8071L23.9834 59.9742L23.9953 59.1298L24.0069 58.2849L24.0186 57.4282L24.0305 56.5718L24.0541 55.7033L24.0657 54.8349L24.0776 53.9662L24.1129 52.2057L24.1484 50.433L24.1719 48.6367L24.2071 46.8399L24.2779 43.2354L24.3369 39.6308L24.3721 37.834L24.4076 36.0496L24.4312 34.2771L24.4664 32.5045L24.4783 31.6359L24.5019 30.7675L24.5136 29.899L24.5255 29.0424L24.5371 28.1978L24.549 27.3411L24.5607 26.5084L24.5843 25.6756L24.5962 24.8429L24.6078 24.0339L24.6197 23.2248L24.6314 22.4159L24.6433 21.6307L24.655 20.8455L24.6669 20.0721L24.6785 19.3108L24.6904 18.5494V17.8118L24.7021 17.0743L24.714 16.3604L26.0101 15.6585L27.2946 14.9566L28.5791 14.2784L29.8636 13.5884L31.1361 12.9103L32.397 12.2202L33.658 11.5421L34.9189 10.852L36.1563 10.1621L37.3933 9.47209L38.6189 8.7582L39.8327 8.04443L40.4337 7.68759L41.0229 7.31875L41.6238 6.9499L42.2131 6.58117L42.8021 6.21232L43.3914 5.8316L43.9687 5.45096L44.6528 5.17468L44.558 5.07057Z" fill="white" fill-opacity="0.5412" stroke="white" stroke-opacity="0.5412" stroke-width="0.0423"/>
<path d="M4.46716 54.8655L4.58502 55.0323L4.70263 55.1869L4.83238 55.3414L4.97382 55.496L5.11523 55.6388L5.25666 55.7816L5.42165 55.9243L5.57474 56.0671L5.73973 56.2099L5.91638 56.3409L6.0933 56.4717L6.28185 56.6024L6.45852 56.7334L6.65899 56.8524L6.84729 56.9714L7.04777 57.1024L7.2599 57.2094L7.47203 57.3281L7.68418 57.4353L7.89606 57.5305L8.12009 57.6377L8.3439 57.7329L8.56793 57.8281L8.79172 57.9233L9.26313 58.1014L9.73453 58.2682L10.2176 58.411L10.7007 58.5417L11.1956 58.6607L11.6787 58.7677L12.1737 58.8629L12.6568 58.9345L13.1398 59.0056L13.6231 59.0414L13.8705 59.0653L14.1062 59.0773L14.33 59.0891H15.0252L15.2492 59.0773L15.473 59.0653L15.6852 59.0532L15.909 59.0414L16.1095 59.0177L16.3216 58.9821L16.5218 58.9581L16.7222 58.9225L16.9225 58.8749L17.111 58.8273L17.2877 58.7797L17.4646 58.7321L17.6413 58.6725L17.8181 58.6131L17.7946 58.6013H17.7827L17.7239 58.5773L17.6532 58.5655L17.5706 58.5417L17.4763 58.5179L17.3584 58.4821L17.2406 58.4465L17.0991 58.4109L16.9461 58.3634L16.7811 58.3275L16.6044 58.2799L16.4158 58.2206L16.2273 58.173L16.0152 58.1136L15.803 58.054L15.5792 57.9944L15.3435 57.9233L15.1078 57.8636L14.8602 57.7923L14.6012 57.7209L14.3419 57.6495L14.0826 57.5781L13.8117 57.4949L13.5289 57.4233L12.9632 57.2687L12.3858 57.1024L11.7966 56.9356L11.2073 56.781L10.6183 56.6024L10.029 56.4479L9.45166 56.2813L8.87409 56.1265L8.60315 56.0436L8.32032 55.9719L8.04938 55.8888L7.79011 55.8174L7.53082 55.746L7.28346 55.6746L7.03587 55.6032L6.80014 55.5436L6.57633 55.4724L6.35254 55.4128L6.14042 55.3532L5.93994 55.2939L5.75137 55.2463L5.57472 55.1869L5.39807 55.1393L5.24476 55.0917L5.10333 55.0559L4.96189 55.0201L4.84406 54.9848L4.73811 54.9489L4.65575 54.9251L4.57311 54.9013L4.5143 54.8775H4.49074L4.53284 54.9094L4.46716 54.8655Z" fill="black" fill-opacity="0.1608" stroke="white" stroke-opacity="0.1608" stroke-width="0.0423"/>
<path d="M16.6555 48.511L5.62601 44.2163L5.52006 44.2639L5.42578 44.3115L5.33151 44.3591L5.26079 44.4185L5.19007 44.4899L5.11938 44.5613L5.06032 44.6447L5.00152 44.7158L4.95439 44.7992L4.90725 44.8827L4.87177 44.9655L4.83653 45.0608L4.80105 45.156L4.77749 45.2393L4.74226 45.418L4.71868 45.5963L4.6951 45.7629V46.203L4.70678 46.2506V46.322L6.42743 46.9287L6.43909 46.9404L6.45099 46.9527L6.46267 46.9645L6.47457 46.988L6.49815 47.0121L6.5098 47.0476L6.54527 47.0832L6.56884 47.119L6.60408 47.1666L6.63956 47.2142L6.6748 47.2618L6.72193 47.3212L6.76907 47.3688L6.81623 47.4404L6.87504 47.488L6.9929 47.6308L7.11071 47.7616L7.26405 47.9041L7.41714 48.0469L7.58213 48.2017L7.75878 48.3445L7.95925 48.4992L8.15948 48.642L8.38353 48.7848L8.60732 48.9153L8.85468 49.0463L9.11395 49.1653L9.2437 49.2129L9.37323 49.2725L9.51467 49.3201L9.65608 49.3677L9.80917 49.4033L9.9506 49.4388L10.1039 49.4747L10.257 49.5105L10.4103 49.534L10.5634 49.5461L10.7284 49.5698L10.8934 49.5816H11.412L11.5886 49.5698L11.7655 49.5461L11.9422 49.5223L12.1307 49.4985L12.3193 49.4629L12.5079 49.4153L12.6964 49.3677L12.8966 49.3081L13.0969 49.2367H13.1088L13.1323 49.2485H13.1676L13.2383 49.2605L13.309 49.2725L13.3916 49.2843L13.4859 49.2961L13.5918 49.3081L13.7097 49.3201L13.8392 49.3319L13.9806 49.3437L14.1221 49.3557H14.2635L14.4168 49.3677H14.7232L14.888 49.3557L15.0413 49.3437L15.2063 49.3319L15.3594 49.3081L15.5127 49.2843L15.6541 49.2485L15.7956 49.2129L15.9367 49.1773L16.0546 49.1177L16.1843 49.0581L16.2903 48.987L16.3846 48.9153L16.4788 48.8204L16.5143 48.7728L16.5496 48.7252L16.585 48.6776L16.6086 48.63L16.6322 48.5704L16.6743 48.581L16.6555 48.511Z" fill="white" fill-opacity="0.3882" stroke="white" stroke-opacity="0.3882" stroke-width="0.0423"/>
<path d="M16.5607 47.0552C12.8959 46.0915 9.23113 45.1397 5.56602 44.1761C5.42458 44.6996 5.41268 45.4491 5.63674 45.8419C6.1905 46.1151 7.30994 46.3295 7.86378 46.6031C9.46636 48.1616 10.8686 48.2925 13.4256 48.0782C14.4156 48.2804 15.4053 48.4472 16.3834 48.6494C16.6886 48.033 16.7728 47.778 16.5623 47.0448L16.5607 47.0552Z" fill="#606060"/>
<path d="M44.9579 4.74114L23.5937 16.8403L23.6761 70.9591L44.5919 53.1855L44.9603 4.74008L44.9579 4.74114Z" fill="white" fill-opacity="0.4" stroke="white" stroke-opacity="0.4" stroke-width="0.0423"/>
<path d="M5.69864 58.2978L5.81649 58.4526L5.94625 58.5954L6.0641 58.7502L6.19361 58.8809L6.32339 59.0237L6.4529 59.1545L6.59432 59.2855L6.73573 59.4042L6.87718 59.5235L7.01862 59.6422L7.17168 59.7614L7.31312 59.8684L7.46643 59.9753L7.61952 60.0705L7.9376 60.2727L8.26759 60.4513L8.59759 60.6178L8.92758 60.7726L9.26922 60.9034L9.6111 61.0342L9.9644 61.1414L10.318 61.2363L10.6598 61.3315L11.0132 61.4031L11.3667 61.4625L11.7203 61.5101L12.0738 61.5459L12.4274 61.5695L12.7691 61.5935H13.1107L13.4526 61.5815L13.7707 61.5577L14.1006 61.5339L14.4187 61.4984L14.7251 61.4387L15.0196 61.3791L15.3025 61.308L15.5853 61.2364L15.8446 61.1414L15.821 61.1294H15.7739L15.7267 61.1058L15.6679 61.0938L15.5972 61.07L15.503 61.0462L15.4087 61.0224L15.3025 60.9986L15.1846 60.9631L15.0668 60.9272L14.9373 60.8914L14.7958 60.8559L14.6427 60.8082L14.4894 60.7727L14.3244 60.7251L14.1478 60.6775L13.9709 60.6299L13.7942 60.5703L13.6057 60.5227L13.4171 60.4631L13.2169 60.4155L13.0047 60.3561L12.5924 60.2374L12.1681 60.1181L11.7203 59.9994L11.2724 59.8802L10.8246 59.7494L9.92916 59.4994L9.49325 59.3807L9.05707 59.2497L8.63307 59.1309L8.4326 59.0833L8.23237 59.0237L8.0319 58.9641L7.84335 58.9165L7.655 58.8572L7.47811 58.8096L7.30144 58.762L7.13645 58.7144L6.97146 58.6668L6.81814 58.6192L6.67696 58.5834L6.5472 58.5478L6.40576 58.5122L6.28793 58.4764L6.182 58.4406L6.08772 58.417L5.99345 58.3812L5.91079 58.3694L5.84009 58.3454L5.78128 58.3218L5.73414 58.3098L5.74467 58.2036L5.69864 58.2978Z" fill="black" fill-opacity="0.1608" stroke="white" stroke-opacity="0.1608" stroke-width="0.0423"/>
<path d="M7.53003 61.6664L7.67144 61.845L7.81288 62.0115L7.96596 62.1781L8.13096 62.3209L8.29595 62.4755L8.46094 62.6065L8.63786 62.7372L8.82616 62.868L9.00307 62.9752L9.2033 63.0824L9.39185 63.1894L9.59233 63.2728L9.80421 63.3557L10.0047 63.4391L10.2168 63.4985L10.4289 63.5581L10.6411 63.6177L10.8649 63.6533L11.077 63.7009L11.3008 63.7247L11.5129 63.7485L11.737 63.7605H12.1846L12.3967 63.7485L12.6207 63.7247L12.8326 63.7009L13.0567 63.6653L13.2688 63.6177L13.4809 63.5701L13.6931 63.5105L13.8933 63.4391H13.8814L13.8578 63.4273H13.8226L13.7754 63.4156L13.7402 63.4033L13.6811 63.3797L13.6223 63.368L13.5516 63.3439L13.4809 63.3321L13.4102 63.3081L13.3276 63.2846L13.2333 63.2605L13.139 63.237L13.0447 63.2011L12.9388 63.1776L12.8326 63.1535L12.6088 63.0824L12.3731 63.0228L12.1138 62.9514L11.8545 62.88L11.5836 62.8086L11.3127 62.7252L10.747 62.5706L10.1813 62.4161L9.91037 62.3327L9.63942 62.2615L9.36825 62.1899L9.12087 62.1187L8.87328 62.0471L8.64947 61.976L8.54356 61.9519L8.43734 61.9164L8.33141 61.8925L8.23713 61.8688L8.14286 61.845L8.06022 61.8212L7.97787 61.7974L7.90713 61.7736L7.83641 61.7498L7.77739 61.726L7.71856 61.714L7.65977 61.7022L7.62428 61.6904L7.58905 61.6784L7.55357 61.6664H7.59567L7.53003 61.6664Z" fill="black" fill-opacity="0.1608" stroke="white" stroke-opacity="0.1608" stroke-width="0.0423"/>
<path d="M3.70936 14.7937L2.62515 14.9483L2.42493 40.8L19.217 45.5468L19.6295 44.1668L3.49744 39.8243L3.71847 14.7887L3.70936 14.7937Z" fill="#FCFCFC" fill-opacity="0.4392" stroke="white" stroke-opacity="0.4392" stroke-width="0.0423"/>
<path d="M19.5499 24.3786L19.5263 25.1044L3.7363 20.5121L19.5453 24.3801L19.5499 24.3786Z" fill="black" fill-opacity="0.2314" stroke="white" stroke-opacity="0.2314" stroke-width="0.0423"/>
<path d="M19.7815 29.6387L19.7462 30.3645L3.9678 25.7722L19.7768 29.6402L19.7815 29.6387Z" fill="black" fill-opacity="0.2314" stroke="white" stroke-opacity="0.2314" stroke-width="0.0423"/>
<path d="M19.5499 34.5055L19.5263 35.2312L3.7363 30.6389L19.5453 34.5069L19.5499 34.5055Z" fill="black" fill-opacity="0.2314" stroke="white" stroke-opacity="0.2314" stroke-width="0.0423"/>
<path d="M19.5499 39.2873L19.5263 40.013L3.7363 35.409L19.5453 39.2876L19.5499 39.2873Z" fill="black" fill-opacity="0.2314" stroke="white" stroke-opacity="0.2314" stroke-width="0.0423"/>
<path d="M3.77251 15.3887L19.4689 19.3503L19.3391 45.4879H19.5984L19.7281 19.2557V19.1488L19.6339 19.125L3.83225 15.1395L3.80869 15.2704L3.77711 15.3872L3.77251 15.3887ZM19.5604 19.3736L19.4661 19.3498V19.2546H19.5957L19.5641 19.3715L19.5604 19.3736Z" fill="#9E9E9E"/>
<path d="M22.2521 32.8612L26.3256 37.1052L25.5398 39.9826L22.7804 40.8018L18.7071 36.5563L16.8653 38.4768L21.5455 45.5098L27.0654 44.4153L46.4374 65.9201C49.4046 69.0367 53.4062 64.3639 50.6306 61.7025L29.9321 41.2922L31.1924 35.4721L24.2333 30.7955L22.2569 32.8655L22.2521 32.8612ZM47.7318 63.0018C48.2598 62.4514 49.1147 62.4514 49.643 63.0018C50.171 63.5517 50.171 64.4437 49.643 64.9944C49.1147 65.5415 48.2598 65.5415 47.7318 64.9944C47.2018 64.4442 47.2018 63.5525 47.7318 63.0023V63.0018Z" fill="black" stroke="black" stroke-linejoin="round"/>
<path d="M22.2521 32.8612L26.3256 37.1052L25.5398 39.9826L22.7804 40.8018L18.7071 36.5563L16.8653 38.4768L21.5455 45.5098L27.0654 44.4153L46.4374 65.9201C49.4046 69.0367 53.4062 64.3639 50.6306 61.7025L29.9321 41.2922L31.1924 35.4721L24.2333 30.7955L22.2569 32.8655L22.2521 32.8612ZM47.7318 63.0018C48.2598 62.4514 49.1147 62.4514 49.643 63.0018C50.171 63.5517 50.171 64.4437 49.643 64.9944C49.1147 65.5415 48.2598 65.5415 47.7318 64.9944C47.2018 64.4442 47.2018 63.5525 47.7318 63.0023V63.0018Z" fill="black" stroke="black" stroke-width="4" stroke-linejoin="round"/>
<path d="M22.2521 32.8612L26.3256 37.1052L25.5398 39.9826L22.7804 40.8018L18.7071 36.5563L16.8653 38.4768L21.5455 45.5098L27.0654 44.4153L46.4374 65.9201C49.4046 69.0367 53.4062 64.3639 50.6306 61.7025L29.9321 41.2922L31.1924 35.4721L24.2333 30.7955L22.2569 32.8655L22.2521 32.8612ZM47.7318 63.0018C48.2598 62.4514 49.1147 62.4514 49.643 63.0018C50.171 63.5517 50.171 64.4437 49.643 64.9944C49.1147 65.5415 48.2598 65.5415 47.7318 64.9944C47.2018 64.4442 47.2018 63.5525 47.7318 63.0023V63.0018Z" fill="#888A85"/>
<mask id="mask0_12_449" style="mask-type:luminance" maskUnits="userSpaceOnUse" x="16" y="30" width="36" height="37">
<path d="M22.2521 32.8612L26.3256 37.1052L25.5398 39.9826L22.7804 40.8018L18.7071 36.5563L16.8653 38.4768L21.5455 45.5098L27.0654 44.4153L46.4374 65.9201C49.4046 69.0367 53.4062 64.3639 50.6306 61.7025L29.9321 41.2922L31.1924 35.4721L24.2333 30.7955L22.2569 32.8655L22.2521 32.8612ZM47.7318 63.0018C48.2598 62.4514 49.1147 62.4514 49.643 63.0018C50.171 63.5517 50.171 64.4437 49.643 64.9944C49.1147 65.5415 48.2598 65.5415 47.7318 64.9944C47.2018 64.4442 47.2018 63.5525 47.7318 63.0023V63.0018Z" fill="white"/>
</mask>
<g mask="url(#mask0_12_449)">
<path d="M22.2521 32.8612L26.3256 37.1052L25.5398 39.9826L22.7804 40.8018L18.7071 36.5563L16.8653 38.4768L21.5455 45.5098L27.0654 44.4153L46.4374 65.9201C49.4046 69.0367 53.4062 64.3639 50.6306 61.7025L29.9321 41.2922L31.1924 35.4721L24.2333 30.7955L22.2569 32.8655L22.2521 32.8612ZM47.7318 63.0018C48.2598 62.4514 49.1147 62.4514 49.643 63.0018C50.171 63.5517 50.171 64.4437 49.643 64.9944C49.1147 65.5415 48.2598 65.5415 47.7318 64.9944C47.2018 64.4442 47.2018 63.5525 47.7318 63.0023V63.0018Z" stroke="white" stroke-opacity="0.2" stroke-width="4"/>
</g>
<path opacity="0.75" d="M22.8525 32.2709L27.0803 36.6558L26.0335 40.4868L22.5915 41.5585L18.3269 37.0557L16.8392 38.5434L21.3026 45.0785L27.2433 43.7214L46.8885 65.469C49.2461 68.1891 53.2383 64.5942 50.3905 61.6673L29.3615 40.9885L30.5751 35.3615L24.3012 30.7636L22.8545 32.2683L22.8525 32.2709ZM47.9888 62.8485C48.5138 62.3009 49.4444 62.1931 49.9692 62.7503C50.5032 63.2975 50.9309 64.2674 50.1732 65.3195C49.5447 65.9749 48.5389 65.9485 47.9102 65.2411C47.3852 64.6884 47.4573 63.4022 47.9898 62.847L47.9888 62.8485Z" fill="url(#paint0_linear_12_449)"/>
<path opacity="0.5" d="M22.8117 32.2784L30.1886 40.0291L31.2011 35.4836L24.2542 30.7643L22.8127 32.2791L22.8117 32.2784Z" fill="url(#paint1_linear_12_449)"/>
<path opacity="0.25" d="M37.4406 48.6952L38.8963 50.098C39.0157 51.514 38.6671 51.9399 36.4351 53.9129L33.7321 50.8913L37.4381 48.6954H37.4406V48.6952Z" fill="url(#paint2_linear_12_449)"/>
<path d="M32.7453 31.1553L32.9844 31.2078C35.763 30.2442 41.999 34.0393 40.6099 37.4213C40.2578 37.9522 40.3175 38.8962 40.7417 39.4893L32.9433 47.6231C32.5061 47.1677 31.535 47.1775 31.0886 47.6231L18.1918 60.5284C17.0161 61.7051 17.9402 62.7045 18.4369 63.2325L20.7507 65.6447C21.2563 66.1687 22.5922 66.8766 23.5417 65.828L35.7125 52.4539C36.1367 51.9884 36.14 50.9889 35.7125 50.5302C35.7125 50.5302 35.7155 50.5234 35.7125 50.5234L43.5425 42.3637C44.3691 43.1402 45.1497 43.2073 45.8904 42.996C47.3209 42.5883 48.1181 44.0471 48.9743 45.1132L48.5874 45.5097C48.0151 46.1128 48.0686 47.1287 48.7098 47.7975C49.3511 48.4657 50.3289 48.5217 50.901 47.9251L53.4597 45.261C54.0317 44.658 53.9782 43.6419 53.3338 42.9764C52.7555 42.3702 51.9162 42.2914 51.3317 42.7242C49.5775 40.6728 50.4984 40.3646 48.1851 37.6939L43.8506 33.0764C40.7278 29.8834 36.6745 29.8885 32.7455 31.1546L32.7453 31.1553Z" fill="black" stroke="black" stroke-linejoin="round"/>
<path d="M32.7453 31.1553L32.9844 31.2078C35.763 30.2442 41.999 34.0393 40.6099 37.4213C40.2578 37.9522 40.3175 38.8962 40.7417 39.4893L32.9433 47.6231C32.5061 47.1677 31.535 47.1775 31.0886 47.6231L18.1918 60.5284C17.0161 61.7051 17.9402 62.7045 18.4369 63.2325L20.7507 65.6447C21.2563 66.1687 22.5922 66.8766 23.5417 65.828L35.7125 52.4539C36.1367 51.9884 36.14 50.9889 35.7125 50.5302C35.7125 50.5302 35.7155 50.5234 35.7125 50.5234L43.5425 42.3637C44.3691 43.1402 45.1497 43.2073 45.8904 42.996C47.3209 42.5883 48.1181 44.0471 48.9743 45.1132L48.5874 45.5097C48.0151 46.1128 48.0686 47.1287 48.7098 47.7975C49.3511 48.4657 50.3289 48.5217 50.901 47.9251L53.4597 45.261C54.0317 44.658 53.9782 43.6419 53.3338 42.9764C52.7555 42.3702 51.9162 42.2914 51.3317 42.7242C49.5775 40.6728 50.4984 40.3646 48.1851 37.6939L43.8506 33.0764C40.7278 29.8834 36.6745 29.8885 32.7455 31.1546L32.7453 31.1553Z" fill="black" stroke="black" stroke-width="4" stroke-linejoin="round"/>
<path d="M41.27 38.9406L32.0133 48.5919L34.7884 51.4859L44.0454 41.8378L41.271 38.9413L41.27 38.9406Z" fill="#D3D7CF"/>
<path opacity="0.5" d="M43.1586 40.9101L33.9016 50.5582L34.7879 51.4857L44.0449 41.8376L43.1591 40.9106L43.1586 40.9101Z" fill="url(#paint3_linear_12_449)"/>
<path d="M42.3823 39.3626L33.1631 48.9748L34.3542 50.2168L43.3378 40.3589L42.3823 39.3641V39.3626Z" fill="url(#paint4_linear_12_449)"/>
<path d="M32.7453 31.1555L32.9844 31.208C35.7631 30.2443 41.9991 34.0394 40.6099 37.4215C40.2578 37.9523 40.3175 38.8964 40.7418 39.4895L43.5426 42.3634C44.3692 43.1399 45.1485 43.2057 45.8905 42.9957C47.3207 42.5927 48.116 44.0447 48.9744 45.1129L48.5875 45.5093C48.0152 46.1125 48.0687 47.1284 48.7099 47.7971C49.3511 48.4653 50.329 48.5213 50.901 47.9247L53.4597 45.2606C54.0318 44.6577 53.9783 43.6415 53.3338 42.9761C52.7555 42.3699 51.9162 42.291 51.3318 42.7238C49.5775 40.6724 50.4984 40.3642 48.1851 37.6935L43.8506 33.076C40.7279 29.878 36.6745 29.8831 32.7456 31.1492L32.7453 31.1555Z" fill="#2E3436"/>
<path opacity="0.5" d="M51.33 42.7264C49.5758 40.675 50.4967 40.3667 48.1834 37.6961L43.8489 33.0785C42.0603 31.2499 39.964 30.4699 37.7636 30.3717L50.6918 43.9817L51.6274 43.0871L51.3313 42.7254L51.33 42.7264Z" fill="url(#paint5_linear_12_449)"/>
<path opacity="0.25" d="M40.8072 36.4008C40.8229 36.7286 40.7507 37.0562 40.6029 37.4232C40.2573 37.9541 40.3173 38.8981 40.7415 39.4912L43.5423 42.3651C44.3689 43.1416 45.1482 43.2074 45.8902 42.9974C46.2296 42.8894 46.5382 42.909 46.8273 42.9974C47.7074 43.2499 40.8047 36.2629 40.8077 36.3677V36.4003L40.8072 36.4008Z" fill="url(#paint6_linear_12_449)"/>
<path d="M32.9419 47.625C32.5047 47.1696 31.5335 47.1794 31.0871 47.625L18.1903 60.5303C17.0146 61.707 17.9328 62.7064 18.4354 63.2344L20.7492 65.6466C21.2548 66.1706 22.5908 66.8785 23.5403 65.8299L35.711 52.4558C36.1353 51.9904 36.1385 50.9908 35.711 50.5321C35.711 50.5321 35.714 50.5253 35.711 50.5253L32.9416 47.6288L32.9419 47.625Z" fill="#3465A4"/>
<path opacity="0.25" d="M18.4332 63.2304L20.7465 65.6458C21.2526 66.1698 22.5475 66.9205 23.4967 65.8784L35.7148 52.4518C36.1393 51.9833 36.152 50.9775 35.7148 50.5245L32.9394 47.6278L18.4332 63.2281V63.2304Z" fill="url(#paint7_linear_12_449)"/>
<path opacity="0.5" d="M31.2971 48.7555L19.0774 61.2207C18.5683 61.7319 18.741 62.4499 19.1087 62.8232L20.4068 64.1239L33.7249 49.8357L32.4928 48.6296C32.2265 48.3684 31.6119 48.4437 31.2959 48.7552L31.2971 48.7555Z" fill="url(#paint8_linear_12_449)"/>
<mask id="mask1_12_449" style="mask-type:luminance" maskUnits="userSpaceOnUse" x="17" y="30" width="37" height="37">
<path d="M36.0534 30.9321C36.9479 31.2341 37.8537 31.7026 38.6528 32.2796C39.5602 32.9348 40.3579 33.7502 40.837 34.654C41.3204 35.566 41.4898 36.595 41.0724 37.6113L41.0537 37.6568L41.0265 37.6977C40.9282 37.846 40.8643 38.0965 40.8837 38.4002C40.9027 38.6993 40.9992 38.9899 41.1484 39.1984L41.3898 39.5359L41.1027 39.8354L33.3042 47.9692L32.9435 48.3454L32.5826 47.9694C32.4879 47.8706 32.2863 47.7843 32.0211 47.7852C31.757 47.7861 31.5456 47.8737 31.4422 47.9766C31.4421 47.9767 31.442 47.9768 31.4419 47.977L18.5455 60.8819C18.5455 60.8819 18.5454 60.8819 18.5454 60.8819C18.2999 61.1276 18.1913 61.3363 18.1475 61.5013C18.1044 61.6639 18.115 61.8182 18.164 61.9732C18.2704 62.3102 18.5409 62.6132 18.7994 62.8881C18.7999 62.8887 18.8005 62.8893 18.8011 62.8899L21.1105 65.2975C21.1106 65.2975 21.1106 65.2976 21.1107 65.2976C21.3056 65.4996 21.6808 65.75 22.0853 65.8373C22.4611 65.9185 22.8383 65.86 23.1711 65.4924L23.1719 65.4915L35.3427 52.1174L35.3429 52.1171C35.4446 52.0056 35.5316 51.7762 35.5319 51.489C35.5321 51.3018 35.4955 51.1417 35.4428 51.0234H34.5397L35.3517 50.1772L43.1817 42.0175L43.5243 41.6606L43.8848 41.9993C44.2444 42.3371 44.5683 42.4976 44.8577 42.5623C45.1483 42.6273 45.4419 42.604 45.7533 42.5152L45.7534 42.5152C46.6952 42.2467 47.4261 42.6179 47.9865 43.1342C48.2603 43.3865 48.5053 43.6825 48.7275 43.9688C48.8263 44.0962 48.9164 44.2158 49.0034 44.3314C49.1242 44.4918 49.2393 44.6446 49.3642 44.8002L49.6415 45.1455L49.3322 45.4625L48.948 45.8561C48.5928 46.2332 48.5822 46.9418 49.0706 47.4513L36.0534 30.9321ZM36.0534 30.9321C38.7785 30.6369 41.3661 31.2534 43.4896 33.4223L47.8136 38.0288C48.9274 39.3158 49.2476 40.0126 49.5066 40.6337C49.5262 40.6807 49.5455 40.7276 49.5649 40.7745C49.8252 41.4047 50.0864 42.0373 50.9517 43.0492L51.2547 43.4034L51.6293 43.126C51.9899 42.859 52.5489 42.878 52.972 43.3216L52.9746 43.3243C53.4646 43.8302 53.4542 44.5389 53.098 44.9157C53.0977 44.9161 53.0973 44.9164 53.0969 44.9168L50.5404 47.5787L50.5401 47.579C50.2024 47.9312 49.5549 47.9558 49.0707 47.4514L36.0534 30.9321Z" fill="white" stroke="white"/>
</mask>
<g mask="url(#mask1_12_449)">
<path d="M32.7453 31.1553L32.9844 31.2078C35.763 30.2442 41.999 34.0393 40.6099 37.4213C40.2578 37.9522 40.3175 38.8962 40.7417 39.4893L32.9433 47.6231C32.5061 47.1677 31.535 47.1775 31.0886 47.6231L18.1918 60.5284C17.0161 61.7051 17.9402 62.7045 18.4369 63.2325L20.7507 65.6447C21.2563 66.1687 22.5922 66.8766 23.5417 65.828L35.7125 52.4539C36.1367 51.9884 36.14 50.9889 35.7125 50.5302C35.7125 50.5302 35.7155 50.5234 35.7125 50.5234L43.5425 42.3637C44.3691 43.1402 45.1497 43.2073 45.8904 42.996C47.3209 42.5883 48.1181 44.0471 48.9743 45.1132L48.5874 45.5097C48.0151 46.1128 48.0686 47.1287 48.7098 47.7975C49.3511 48.4657 50.3289 48.5217 50.901 47.9251L53.4597 45.261C54.0317 44.658 53.9782 43.6419 53.3338 42.9764C52.7555 42.3702 51.9162 42.2914 51.3317 42.7242C49.5775 40.6728 50.4984 40.3646 48.1851 37.6939L43.8506 33.0764C40.7278 29.8834 36.6745 29.8885 32.7455 31.1546L32.7453 31.1553Z" stroke="white" stroke-opacity="0.2" stroke-width="4" stroke-linejoin="round"/>
</g>
<path d="M53.0643 43.3669C53.5388 43.839 53.6299 44.4944 52.9762 45.1234L51.7597 46.3132C51.1061 46.952 49.3961 45.248 50.0468 44.6122L51.2663 43.423C51.9157 42.7824 52.5901 42.8929 53.0628 43.3652L53.0643 43.3669Z" fill="url(#paint9_linear_12_449)"/>
</g>
<path d="M72.2118 60.6V61.656H69.7278V69H68.6238V61.656H66.1518V60.6H72.2118ZM81.2598 67.884C80.4198 68.732 79.3918 69.156 78.1758 69.156C76.9598 69.156 75.9318 68.732 75.0918 67.884C74.2518 67.036 73.8318 66.008 73.8318 64.8C73.8318 63.584 74.2518 62.556 75.0918 61.716C75.9318 60.868 76.9598 60.444 78.1758 60.444C79.3918 60.444 80.4198 60.868 81.2598 61.716C82.1078 62.556 82.5318 63.584 82.5318 64.8C82.5318 66.008 82.1078 67.036 81.2598 67.884ZM75.8598 67.128C76.4838 67.752 77.2558 68.064 78.1758 68.064C79.0958 68.064 79.8638 67.752 80.4798 67.128C81.1038 66.496 81.4158 65.72 81.4158 64.8C81.4158 63.872 81.1038 63.096 80.4798 62.472C79.8638 61.84 79.0958 61.524 78.1758 61.524C77.2558 61.524 76.4838 61.84 75.8598 62.472C75.2438 63.096 74.9358 63.872 74.9358 64.8C74.9358 65.72 75.2438 66.496 75.8598 67.128ZM90.209 60.6V61.656H87.725V69H86.621V61.656H84.149V60.6H90.209ZM92.7534 60.6H93.8694V69H92.7534V60.6ZM106.531 69L104.647 65.784H102.667V69H101.551V60.6H104.911C105.631 60.6 106.247 60.856 106.759 61.368C107.271 61.872 107.527 62.484 107.527 63.204C107.527 63.748 107.363 64.244 107.035 64.692C106.715 65.14 106.299 65.456 105.787 65.64L107.767 69H106.531ZM102.667 61.644V64.776H104.911C105.327 64.776 105.679 64.624 105.967 64.32C106.263 64.008 106.411 63.636 106.411 63.204C106.411 62.772 106.263 62.404 105.967 62.1C105.679 61.796 105.327 61.644 104.911 61.644H102.667ZM111.443 67.944H115.343V69H110.327V60.6H115.283V61.656H111.443V64.236H114.983V65.28H111.443V67.944ZM121.179 60.6C121.955 60.6 122.599 60.86 123.111 61.38C123.631 61.892 123.891 62.532 123.891 63.3C123.891 64.06 123.631 64.7 123.111 65.22C122.599 65.74 121.955 66 121.179 66H119.247V69H118.131V60.6H121.179ZM121.179 64.956C121.643 64.956 122.027 64.8 122.331 64.488C122.635 64.168 122.787 63.772 122.787 63.3C122.787 62.82 122.635 62.424 122.331 62.112C122.027 61.8 121.643 61.644 121.179 61.644H119.247V64.956H121.179ZM131.325 69L130.641 67.116H126.861L126.177 69H124.989L128.121 60.6H129.381L132.513 69H131.325ZM127.245 66.072H130.257L128.745 61.932L127.245 66.072ZM139.924 69L138.04 65.784H136.06V69H134.944V60.6H138.304C139.024 60.6 139.64 60.856 140.152 61.368C140.664 61.872 140.92 62.484 140.92 63.204C140.92 63.748 140.756 64.244 140.428 64.692C140.108 65.14 139.692 65.456 139.18 65.64L141.16 69H139.924ZM136.06 61.644V64.776H138.304C138.72 64.776 139.072 64.624 139.36 64.32C139.656 64.008 139.804 63.636 139.804 63.204C139.804 62.772 139.656 62.404 139.36 62.1C139.072 61.796 138.72 61.644 138.304 61.644H136.06ZM149.252 69L148.568 67.116H144.788L144.104 69H142.916L146.048 60.6H147.308L150.44 69H149.252ZM145.172 66.072H148.184L146.672 61.932L145.172 66.072ZM158.427 67.944H162.051V69H157.311V60.6H158.427V67.944ZM170.377 69L169.693 67.116H165.913L165.229 69H164.041L167.173 60.6H168.433L171.565 69H170.377ZM166.297 66.072H169.309L167.797 61.932L166.297 66.072ZM183.656 60.6H184.772V69H183.872L179.552 62.724V69H178.436V60.6H179.336L183.656 66.864V60.6ZM194.993 67.884C194.153 68.732 193.125 69.156 191.909 69.156C190.693 69.156 189.665 68.732 188.825 67.884C187.985 67.036 187.565 66.008 187.565 64.8C187.565 63.584 187.985 62.556 188.825 61.716C189.665 60.868 190.693 60.444 191.909 60.444C193.125 60.444 194.153 60.868 194.993 61.716C195.841 62.556 196.265 63.584 196.265 64.8C196.265 66.008 195.841 67.036 194.993 67.884ZM189.593 67.128C190.217 67.752 190.989 68.064 191.909 68.064C192.829 68.064 193.597 67.752 194.213 67.128C194.837 66.496 195.149 65.72 195.149 64.8C195.149 63.872 194.837 63.096 194.213 62.472C193.597 61.84 192.829 61.524 191.909 61.524C190.989 61.524 190.217 61.84 189.593 62.472C188.977 63.096 188.669 63.872 188.669 64.8C188.669 65.72 188.977 66.496 189.593 67.128ZM199.046 60.6H200.162V69H199.046V60.6Z" fill="#276CAA"/>
<defs>
<linearGradient id="paint0_linear_12_449" x1="31.8446" y1="53.841" x2="40.6024" y2="45.2286" gradientUnits="userSpaceOnUse">
<stop stop-color="white"/>
<stop offset="1" stop-color="white" stop-opacity="0"/>
</linearGradient>
<linearGradient id="paint1_linear_12_449" x1="26.0047" y1="37.0173" x2="23.4101" y2="41.4322" gradientUnits="userSpaceOnUse">
<stop stop-color="white"/>
<stop offset="1" stop-color="white" stop-opacity="0"/>
</linearGradient>
<linearGradient id="paint2_linear_12_449" x1="35.6833" y1="49.2436" x2="39.1291" y2="55.9533" gradientUnits="userSpaceOnUse">
<stop/>
<stop offset="1" stop-opacity="0"/>
</linearGradient>
<linearGradient id="paint3_linear_12_449" x1="854.799" y1="872.361" x2="812.384" y2="830.291" gradientUnits="userSpaceOnUse">
<stop/>
<stop offset="1" stop-opacity="0"/>
</linearGradient>
<linearGradient id="paint4_linear_12_449" x1="37.6821" y1="44.0989" x2="39.0624" y2="45.4661" gradientUnits="userSpaceOnUse">
<stop stop-color="white"/>
<stop offset="1" stop-color="white" stop-opacity="0"/>
</linearGradient>
<linearGradient id="paint5_linear_12_449" x1="45.8072" y1="35.5991" x2="43.3158" y2="38.0668" gradientUnits="userSpaceOnUse">
<stop stop-color="white"/>
<stop offset="1" stop-color="white" stop-opacity="0"/>
</linearGradient>
<linearGradient id="paint6_linear_12_449" x1="42.6063" y1="40.9412" x2="44.5866" y2="38.9797" gradientUnits="userSpaceOnUse">
<stop stop-color="white"/>
<stop offset="1" stop-color="white" stop-opacity="0"/>
</linearGradient>
<linearGradient id="paint7_linear_12_449" x1="29.4301" y1="59.25" x2="25.2484" y2="55.1081" gradientUnits="userSpaceOnUse">
<stop/>
<stop offset="1" stop-opacity="0"/>
</linearGradient>
<linearGradient id="paint8_linear_12_449" x1="24.9787" y1="54.8795" x2="27.6516" y2="57.4586" gradientUnits="userSpaceOnUse">
<stop stop-color="white"/>
<stop offset="1" stop-color="white" stop-opacity="0"/>
</linearGradient>
<linearGradient id="paint9_linear_12_449" x1="54.5206" y1="42.039" x2="51.4337" y2="45.4455" gradientUnits="userSpaceOnUse">
<stop stop-color="white"/>
<stop offset="1" stop-color="white" stop-opacity="0"/>
</linearGradient>
<clipPath id="clip0_12_449">
<rect width="58" height="72" fill="white"/>
</clipPath>
</defs>
</svg>
