<svg width="48" height="48" viewBox="0 0 48 48" fill="none" xmlns="http://www.w3.org/2000/svg">
<rect x="0.000366211" width="48" height="48" rx="15" fill="#E2001A" fill-opacity="0.1"/>
<path d="M31.2344 28.1712V30.4647C31.2352 30.6777 31.1916 30.8884 31.1061 31.0835C31.0206 31.2786 30.8953 31.4537 30.7381 31.5977C30.5809 31.7416 30.3953 31.8512 30.1932 31.9194C29.9911 31.9876 29.777 32.0129 29.5645 31.9938C27.2075 31.7382 24.9433 30.9343 22.9541 29.6467C21.1033 28.4729 19.5342 26.9068 18.3582 25.0596C17.0636 23.0651 16.258 20.7943 16.0066 18.4312C15.9874 18.2198 16.0126 18.0067 16.0805 17.8055C16.1484 17.6043 16.2575 17.4195 16.4009 17.2627C16.5443 17.1059 16.7188 16.9806 16.9134 16.8949C17.1079 16.8091 17.3182 16.7647 17.5309 16.7645H19.8289C20.2006 16.7609 20.561 16.8922 20.8428 17.1342C21.1247 17.3761 21.3088 17.7121 21.3608 18.0795C21.4578 18.8135 21.6377 19.5342 21.897 20.2278C22.0001 20.5014 22.0224 20.7988 21.9613 21.0847C21.9002 21.3706 21.7583 21.6331 21.5523 21.8409L20.5795 22.8119C21.6699 24.7259 23.2578 26.3107 25.1754 27.399L26.1482 26.4281C26.3565 26.2225 26.6194 26.0809 26.9059 26.0199C27.1923 25.9589 27.4903 25.9812 27.7645 26.084C28.4594 26.3429 29.1815 26.5224 29.9169 26.6192C30.289 26.6716 30.6288 26.8586 30.8717 27.1448C31.1146 27.4309 31.2437 27.7962 31.2344 28.1712Z" fill="#E2001A"/>
<path d="M25.9109 19.0581C26.6591 19.2038 27.3466 19.569 27.8857 20.107C28.4247 20.6449 28.7906 21.3312 28.9365 22.0779M25.9109 16C27.4653 16.1724 28.9148 16.8671 30.0214 17.9702C31.1279 19.0733 31.8258 20.5191 32.0005 22.0703" stroke="#E2001A" stroke-width="2" stroke-linecap="round" stroke-linejoin="round"/>
</svg>
