<svg width="48" height="48" viewBox="0 0 48 48" fill="none" xmlns="http://www.w3.org/2000/svg">
<rect width="48" height="48" rx="15" fill="#E2001A"/>
<path d="M31.234 28.1712V30.4647C31.2349 30.6777 31.1912 30.8884 31.1057 31.0835C31.0203 31.2786 30.8949 31.4537 30.7377 31.5977C30.5805 31.7416 30.3949 31.8512 30.1929 31.9194C29.9908 31.9876 29.7766 32.013 29.5642 31.9938C27.2071 31.7382 24.943 30.9343 22.9537 29.6467C21.103 28.4729 19.5338 26.9068 18.3578 25.0596C17.0633 23.0651 16.2576 20.7943 16.0062 18.4312C15.9871 18.2198 16.0122 18.0067 16.0801 17.8055C16.148 17.6043 16.2571 17.4195 16.4005 17.2627C16.5439 17.1059 16.7184 16.9807 16.913 16.8949C17.1075 16.8091 17.3178 16.7647 17.5305 16.7645H19.8285C20.2002 16.7609 20.5606 16.8923 20.8425 17.1342C21.1243 17.3761 21.3084 17.7121 21.3605 18.0795C21.4574 18.8135 21.6373 19.5342 21.8966 20.2278C21.9997 20.5014 22.022 20.7988 21.9609 21.0847C21.8998 21.3706 21.7579 21.6331 21.552 21.8409L20.5792 22.8119C21.6696 24.7259 23.2574 26.3107 25.1751 27.399L26.1479 26.4281C26.3561 26.2225 26.6191 26.0809 26.9055 26.0199C27.192 25.9589 27.4899 25.9812 27.7641 26.084C28.4591 26.3429 29.1811 26.5224 29.9165 26.6192C30.2886 26.6716 30.6284 26.8587 30.8713 27.1448C31.1143 27.431 31.2433 27.7962 31.234 28.1712Z" fill="white"/>
<path d="M25.9105 19.0581C26.6587 19.2038 27.3463 19.569 27.8853 20.107C28.4243 20.6449 28.7902 21.3312 28.9362 22.0779M25.9105 16C27.4649 16.1724 28.9144 16.8671 30.021 17.9702C31.1276 19.0733 31.8255 20.5191 32.0001 22.0703" stroke="white" stroke-width="2" stroke-linecap="round" stroke-linejoin="round"/>
</svg>
