<svg width="89" height="14" viewBox="0 0 89 14" fill="none" xmlns="http://www.w3.org/2000/svg">
<path d="M9.61339 5.61299L1.49743 0.447427C0.849191 0.0326269 0 0.49927 0 1.27054V12.3341C0 13.1312 0.901055 13.5849 1.54281 13.1183L9.65877 7.22034C10.2227 6.81202 10.1968 5.98242 9.61339 5.61299Z" fill="#DCE0E2"/>
<path d="M29.2757 5.61299L21.1597 0.447427C20.5115 0.0326269 19.6623 0.49927 19.6623 1.27054V12.3341C19.6623 13.1312 20.5633 13.5849 21.2051 13.1183L29.321 7.22034C29.8785 6.81202 29.8526 5.98242 29.2757 5.61299Z" fill="#DCE0E2"/>
<path d="M48.9353 5.61299L40.8193 0.447427C40.1711 0.0326269 39.3219 0.49927 39.3219 1.27054V12.3341C39.3219 13.1312 40.223 13.5849 40.8647 13.1183L48.9807 7.22034C49.5381 6.81202 49.5122 5.98242 48.9353 5.61299Z" fill="#DCE0E2"/>
<path d="M68.5968 5.61299L60.4808 0.447427C59.8326 0.0326269 58.9834 0.49927 58.9834 1.27054V12.3341C58.9834 13.1312 59.8844 13.5849 60.5262 13.1183L68.6422 7.22034C69.1996 6.81202 69.1737 5.98242 68.5968 5.61299Z" fill="#DCE0E2"/>
<path d="M88.2584 5.61299L80.1424 0.447427C79.4942 0.0326269 78.645 0.49927 78.645 1.27054V12.3341C78.645 13.1312 79.5461 13.5849 80.1878 13.1183L88.3038 7.22034C88.8613 6.81202 88.8353 5.98242 88.2584 5.61299Z" fill="#DCE0E2"/>
</svg>
