<svg width="100" height="63" viewBox="0 0 100 63" fill="none" xmlns="http://www.w3.org/2000/svg">
<path d="M99.1382 61.4089C99.0658 60.9167 98.6532 60.5404 98.1538 60.5332C96.3586 60.5042 91.9936 59.9252 87.5925 55.5248C81.3671 49.3006 78.4355 48.2078 74.5845 48.2078C70.3498 48.2078 65.7315 50.4948 61.5765 54.6491C57.3708 58.8541 54.1279 60.4897 50.009 60.4897C45.7961 60.4897 41.5035 56.8276 39.3174 54.6491C37.0879 52.42 31.4996 48.2078 26.3094 48.2078C21.8359 48.2078 17.5071 51.4719 14.0253 54.0918L13.41 54.555C12.7441 55.0544 12.1071 55.5827 11.4918 56.0966C8.95097 58.2172 6.53324 60.2292 1.81359 60.468C1.27793 60.497 0.85083 60.9457 0.85083 61.4813C0.85083 62.0675 1.3431 62.5307 1.92944 62.5018C7.32952 62.2195 10.225 59.8022 12.7947 57.6599C13.4173 57.1388 14.0036 56.6466 14.6261 56.1834L15.2487 55.713C18.4844 53.274 22.5091 50.2415 26.3022 50.2415C30.0157 50.2415 35.0321 53.2523 37.8697 56.0821C40.2729 58.485 45.0505 62.5235 50.0018 62.5235C54.6635 62.5235 58.4349 60.6562 63.0097 56.0821C66.7811 52.3114 70.8855 50.2415 74.5772 50.2415C77.5017 50.2415 79.8904 50.7119 86.1447 56.9651C91.0308 61.8576 95.9387 62.5452 98.1248 62.5741C98.7473 62.5886 99.2323 62.0313 99.1382 61.4089Z" fill="#FFD66B"/>
<path d="M99.1382 37.5832C99.0658 37.0911 98.6532 36.7147 98.1538 36.7075C96.3586 36.6785 91.9936 36.0995 87.5925 31.6992C81.3671 25.4749 78.4355 24.3821 74.5845 24.3821C70.3498 24.3821 65.7315 26.6691 61.5765 30.8234C57.3708 35.0284 54.1278 36.664 50.009 36.664C45.7961 36.664 41.5035 33.0019 39.3174 30.8234C37.0879 28.5943 31.4996 24.3821 26.3094 24.3821C21.8359 24.3821 17.5071 27.6462 14.0253 30.2661L13.41 30.7293C12.7441 31.2287 12.1071 31.7571 11.4918 32.2709C8.95097 34.3915 6.53324 36.4035 1.81359 36.6423C1.27793 36.6713 0.85083 37.12 0.85083 37.6556C0.85083 38.2418 1.3431 38.705 1.92944 38.6761C7.32952 38.3938 10.225 35.9765 12.7947 33.8342C13.4173 33.3131 14.0036 32.821 14.6261 32.3578L15.2487 31.8873C18.4844 29.4483 22.5091 26.4158 26.3022 26.4158C30.0157 26.4158 35.0321 29.4266 37.8697 32.2564C40.2729 34.6593 45.0505 38.6978 50.0018 38.6978C54.6635 38.6978 58.4349 36.8305 63.0097 32.2564C66.7811 28.4857 70.8855 26.4158 74.5772 26.4158C77.5017 26.4158 79.8904 26.8862 86.1447 33.1394C91.0308 38.0247 95.9387 38.7123 98.1248 38.7484C98.7473 38.7629 99.2323 38.2056 99.1382 37.5832Z" fill="#FFD66B"/>
<path d="M1.92883 14.8575C7.32891 14.5752 10.2244 12.1579 12.7941 10.0156C13.4166 9.4945 14.003 9.00236 14.6255 8.53916L15.248 8.06872C18.4838 5.6297 22.5085 2.5972 26.3016 2.5972C30.0151 2.5972 35.0315 5.60799 37.8691 8.43783C40.2723 10.8407 45.0499 14.8792 50.0012 14.8792C54.6629 14.8792 58.4343 13.0119 63.0091 8.43783C66.7805 4.66712 70.8849 2.5972 74.5766 2.5972C77.5011 2.5972 79.8898 3.06764 86.1441 9.3208C91.0302 14.2061 95.9381 14.8936 98.1242 14.9298C98.7467 14.9371 99.2317 14.3798 99.1376 13.7646C99.0652 13.2725 98.6526 12.8961 98.1532 12.8889C96.358 12.8599 91.993 12.2809 87.5918 7.88055C81.3665 1.65633 78.4349 0.563477 74.5839 0.563477C70.3492 0.563477 65.7309 2.85051 61.5759 7.00481C57.3702 11.2098 54.1272 12.8454 50.0084 12.8454C45.7955 12.8454 41.5029 9.18329 39.3168 7.00481C37.0873 4.77568 31.499 0.563477 26.3088 0.563477C21.8353 0.563477 17.5065 3.82757 14.0247 6.44753L13.4094 6.91073C12.7435 7.41011 12.1064 7.93845 11.4912 8.45231C8.95036 10.5729 6.53263 12.5849 1.81298 12.8237C1.27732 12.8527 0.85022 13.3014 0.85022 13.837C0.85022 14.4232 1.34973 14.8864 1.92883 14.8575Z" fill="#FFD66B"/>
</svg>
