<svg width="80" height="80" viewBox="0 0 80 80" fill="none" xmlns="http://www.w3.org/2000/svg">
<path d="M40 71.9999C32.2318 70.8978 25.1223 67.0289 19.9782 61.1045C14.8342 55.18 12.0012 47.598 12 39.7519V28.6399C11.9972 27.233 12.3656 25.8501 13.0679 24.631C13.7701 23.4118 14.7815 22.3994 16 21.6959L36 10.2719C37.2085 9.5816 38.5762 9.21851 39.968 9.21851C41.3598 9.21851 42.7275 9.5816 43.936 10.2719L64 21.6959C65.2185 22.3994 66.2299 23.4118 66.9322 24.631C67.6345 25.8501 68.0028 27.233 68 28.6399V39.7439C68.0024 47.5918 65.1709 55.1767 60.0264 61.1032C54.8819 67.0296 47.7703 70.8992 40 71.9999V71.9999Z" fill="#005AAA"/>
<path d="M37.8 9.52808C37.1822 9.702 36.5883 9.95191 36.032 10.2721L16 21.6961C14.7815 22.3996 13.7701 23.412 13.0679 24.6311C12.3656 25.8503 11.9972 27.2331 12 28.6401V39.7521C12 39.8401 12 39.9201 12 40.0081C16.0811 43.0615 21.174 44.4415 26.2383 43.8664C31.3027 43.2912 35.9564 40.8042 39.2488 36.9133C42.5412 33.0225 44.2239 28.0214 43.9531 22.9317C43.6824 17.842 41.4786 13.0477 37.792 9.52808H37.8Z" fill="#FFD66B"/>
<path d="M40 62.984C34.4601 62.1973 29.3891 59.4409 25.716 55.2198C22.0429 50.9987 20.0137 45.5955 20 40V30.64C20.0006 30.0533 20.1563 29.4771 20.4513 28.9699C20.7464 28.4627 21.1702 28.0426 21.68 27.752L38.344 18.224C38.8488 17.9372 39.4194 17.7864 40 17.7864C40.5806 17.7864 41.1512 17.9372 41.656 18.224L58.32 27.752C58.8298 28.0426 59.2536 28.4627 59.5487 28.9699C59.8437 29.4771 59.9994 30.0533 60 30.64V39.952C59.9995 45.5562 57.9761 50.9719 54.3016 55.2034C50.6272 59.4349 45.5488 62.1977 40 62.984V62.984Z" fill="#3D8AFF"/>
<path d="M32 39.9999L37.336 45.5999L48 34.3999" stroke="white" stroke-width="5" stroke-linecap="round" stroke-linejoin="round"/>
<path d="M60 56C59.1381 56.0039 58.3006 56.2862 57.6121 56.8046C56.9236 57.3231 56.4209 58.0501 56.1791 58.8774C55.9372 59.7047 55.969 60.5879 56.2697 61.3957C56.5704 62.2034 57.124 62.8924 57.848 63.36C59.7695 61.5345 61.462 59.4821 62.888 57.248C62.516 56.8556 62.0683 56.5426 61.5719 56.3281C61.0755 56.1136 60.5408 56.002 60 56Z" fill="#FFD66B"/>
</svg>
